<?xml version="1.0" encoding="UTF-8"?>
<svg id="Layer_1" xmlns="http://www.w3.org/2000/svg" xmlns:xlink="http://www.w3.org/1999/xlink" version="1.1" viewBox="0 0 220 78.6">
  <!-- Generator: Adobe Illustrator 29.1.0, SVG Export Plug-In . SVG Version: 2.1.0 Build 142)  -->
  <defs>
    <style>
      .st0 {
        fill: url(#linear-gradient1);
      }

      .st1 {
        fill: url(#linear-gradient);
      }

      .st2 {
        fill: #1a1a1a;
      }
    </style>
    <linearGradient id="linear-gradient" x1="-505.4" y1="-400.9" x2="-550.9" y2="-402.2" gradientTransform="translate(564 -342) scale(1 -1)" gradientUnits="userSpaceOnUse">
      <stop offset="0" stop-color="#2b2b2b"/>
      <stop offset=".5" stop-color="#6e6e6e"/>
      <stop offset="1" stop-color="#7d7d7d"/>
    </linearGradient>
    <linearGradient id="linear-gradient1" x1="-476.9" y1="-432.6" x2="-540.4" y2="-368.3" gradientTransform="translate(564 -342) scale(1 -1)" gradientUnits="userSpaceOnUse">
      <stop offset="0" stop-color="#595959"/>
      <stop offset=".5" stop-color="#686868"/>
      <stop offset="1" stop-color="#141414"/>
    </linearGradient>
  </defs>
  <path class="st2" d="M125.7,51.6c0,.2.2.3.2.5,0,.1,0,.3,0,.5s0,.5-.2.8c0,.2-.3.4-.5.6-.2.2-.4.3-.7.4-.2.1-.5.2-.8.2-.4,0-.8-.1-1.1-.3s-.6-.5-.7-1c-3.1-7.2-7.7-17.9-13.8-32.2-3.1,7.2-7.7,17.9-13.8,32.2-.2.4-.4.8-.8,1-.3.2-.7.3-1.1.3s-.6,0-.8-.2c-.2-.1-.5-.2-.7-.4-.2-.2-.4-.4-.5-.6,0-.2-.2-.5-.2-.8s0-.3,0-.5c0-.1,0-.2.2-.4,3.4-7.7,8.4-19.3,15.2-34.8,0-.2.2-.5.4-.6.2-.2.4-.3.6-.5s.4-.2.6-.3c.2,0,.5-.1.7-.1s.5,0,.7.1c.2,0,.5.2.7.3.2.1.4.3.6.5s.3.4.4.6c2.6,5.8,5.1,11.6,7.6,17.5,2.6,5.8,5.1,11.6,7.6,17.4h0s0,0,0,0Z"/>
  <path class="st2" d="M160.2,15.6c.3-.2.7-.3,1.1-.3.6,0,1.1.2,1.6.6.4.4.6.8.6,1.4s0,.6-.2.9c-3.4,7.7-8.4,19.4-15.2,34.8-.2.5-.5.9-.9,1.1-.4.2-.9.4-1.4.4s-.9-.1-1.3-.4c-.4-.2-.8-.6-1-1.1-3.3-7.7-8.4-19.3-15.1-34.8-.1-.3-.1-.5-.1-.8,0-.6.2-1.1.7-1.4.4-.4.9-.6,1.5-.6.9,0,1.5.4,1.9,1.2,3,7.1,7.6,17.7,13.6,31.8,2.3-5.3,6.8-15.9,13.6-31.8.2-.4.5-.7.8-.9h0Z"/>
  <path class="st2" d="M170.8,34.9c0-2.8.5-5.4,1.6-7.9,1.1-2.5,2.5-4.6,4.3-6.4,1.8-1.8,3.9-3.3,6.4-4.3,2.4-1.1,5.1-1.6,7.9-1.6s5.4.5,7.8,1.6,4.6,2.5,6.4,4.3c1.8,1.8,3.2,4,4.3,6.4,1.1,2.5,1.6,5.1,1.6,7.9s-.5,5.4-1.6,7.8-2.5,4.6-4.3,6.4c-1.8,1.8-3.9,3.2-6.4,4.3-2.4,1.1-5.1,1.6-7.9,1.6s-5.4-.5-7.8-1.6c-2.4-1.1-4.6-2.5-6.4-4.3-1.8-1.8-3.2-3.9-4.3-6.4-1.1-2.4-1.6-5-1.6-7.8h0ZM174.4,34.8c0,2.3.4,4.4,1.3,6.4s2.1,3.7,3.5,5.2c1.5,1.5,3.2,2.7,5.2,3.5s4.2,1.3,6.5,1.3,4.4-.4,6.4-1.3c2-.9,3.8-2,5.2-3.5s2.7-3.2,3.5-5.2c.9-2,1.3-4.1,1.3-6.4s-.4-4.4-1.3-6.4-2.1-3.8-3.5-5.2c-1.5-1.5-3.2-2.7-5.2-3.5s-4.1-1.3-6.4-1.3-4.4.4-6.5,1.3c-2,.9-3.8,2-5.2,3.5s-2.7,3.2-3.5,5.2c-.9,2-1.3,4.1-1.3,6.4Z"/>
  <path class="st2" d="M103.2,70c0,0,0,.1,0,.2s0,.1,0,.2,0,.2,0,.3c0,0,0,.2-.2.2,0,0-.2.1-.2.1,0,0-.2,0-.3,0-.2,0-.3,0-.4-.1s-.2-.2-.3-.3c-1.2-2.6-2.9-6.4-5.1-11.6-1.1,2.6-2.8,6.4-5.1,11.6,0,.2-.2.3-.3.3-.1,0-.2.1-.4.1s-.2,0-.3,0-.2,0-.2-.2c0,0-.2-.2-.2-.2,0,0,0-.2,0-.3s0-.1,0-.2c0,0,0,0,0-.2,1.2-2.8,3.1-7,5.6-12.5,0,0,0-.2.2-.2s.1-.1.2-.2c0,0,.2,0,.2,0,0,0,.2,0,.3,0s.2,0,.3,0c0,0,.2,0,.3.1,0,0,.2.1.2.2s.1.1.1.2c.9,2.1,1.9,4.2,2.8,6.3.9,2.1,1.9,4.2,2.8,6.3h0Z"/>
  <path class="st2" d="M115.1,61.3c.2.2.2.3.2.6v8.3c0,.2,0,.4-.2.6s-.3.2-.6.2-.4,0-.6-.2c-.1-.1-.2-.3-.2-.5v-1c-.3.6-.7,1-1.3,1.3-.6.3-1.2.4-1.8.4-1.1,0-2-.3-2.6-.9-.6-.6-.9-1.6-.9-2.8v-5.3c0-.2,0-.4.2-.6.1-.1.3-.2.6-.2s.4,0,.6.2c.1.2.2.3.2.6v5.3c0,.8.2,1.5.5,1.9.3.4.9.6,1.6.6s1.5-.3,2-.8c.5-.5.8-1.2.8-2.1v-4.8c0-.2,0-.4.2-.6.1-.1.3-.2.6-.2s.4,0,.6.2h0Z"/>
  <path class="st2" d="M130.4,70.3c-.7-.4-1.2-1-1.6-1.7s-.6-1.6-.6-2.6.2-1.9.6-2.6c.4-.7.9-1.3,1.6-1.7s1.5-.6,2.4-.6,1.7.2,2.4.6c.7.4,1.2,1,1.6,1.7.4.7.6,1.6.6,2.6s-.2,1.9-.6,2.6c-.4.8-.9,1.3-1.6,1.7-.7.4-1.5.6-2.4.6s-1.7-.2-2.4-.6h0ZM135,68.7c.5-.6.8-1.5.8-2.7s-.3-2.1-.8-2.7c-.5-.6-1.2-.9-2.1-.9s-1.6.3-2.2.9c-.5.6-.8,1.5-.8,2.7s.2,2.1.8,2.7c.5.6,1.2,1,2.2,1s1.6-.3,2.1-.9Z"/>
  <path class="st2" d="M155.5,64.8v5.3c0,.3,0,.4-.2.6-.1.1-.3.2-.6.2s-.4,0-.6-.2c-.2-.1-.2-.3-.2-.6v-5.3c0-.9-.2-1.5-.5-1.9-.3-.4-.8-.6-1.5-.6s-1.4.3-1.9.8c-.5.5-.7,1.3-.7,2.2v4.8c0,.3,0,.4-.2.6-.1.1-.3.2-.6.2s-.4,0-.6-.2c-.1-.1-.2-.3-.2-.6v-5.3c0-.9-.1-1.5-.5-1.9-.3-.4-.8-.6-1.5-.6s-1.4.3-1.9.8c-.5.5-.7,1.2-.7,2.2v4.8c0,.3,0,.4-.2.6-.1.1-.3.2-.6.2s-.4,0-.6-.2c-.2-.1-.2-.3-.2-.6v-8.3c0-.2,0-.4.2-.6.1-.1.3-.2.6-.2s.4,0,.5.2c.2.1.2.3.2.5v.9c.3-.6.7-1,1.2-1.3.5-.3,1.1-.5,1.8-.5,1.5,0,2.5.6,2.9,1.9.3-.6.7-1,1.2-1.4.6-.3,1.2-.5,1.9-.5,2.1,0,3.2,1.3,3.2,3.8h0Z"/>
  <path class="st2" d="M167.9,64.8v5.3c0,.2,0,.4-.2.6s-.3.2-.6.2-.4,0-.6-.2c-.1-.1-.2-.3-.2-.6v-.9c-.2.6-.6,1-1.1,1.3s-1.1.5-1.8.5-1.2-.1-1.7-.4c-.5-.3-.9-.6-1.2-1.1-.3-.4-.5-.9-.5-1.5s.2-1.3.6-1.7c.4-.4,1-.7,1.8-.8.8-.2,2-.3,3.5-.3h.4v-.7c0-.8-.1-1.4-.5-1.7-.3-.4-.8-.5-1.6-.5s-1.8.2-2.7.7c-.3.2-.6.3-.8.3s-.3,0-.4-.2c-.1-.1-.1-.3-.1-.5s0-.3.1-.5c.1-.1.3-.3.6-.4.4-.3,1-.5,1.6-.6.6-.2,1.2-.2,1.7-.2,2.4,0,3.6,1.2,3.6,3.8h0ZM165.5,68.9c.5-.5.8-1.2.8-2.1v-.6h-.3c-1.1,0-2,0-2.6.2-.6,0-1,.3-1.3.5-.3.2-.4.6-.4,1s.2.9.6,1.3c.4.3.8.5,1.4.5s1.4-.3,1.9-.8h0Z"/>
  <path class="st2" d="M181.4,58.7c-.2-.2-.3-.4-.3-.7s.1-.5.3-.7c.2-.2.4-.3.8-.3s.6,0,.8.3c.2.2.3.4.3.7s0,.5-.3.7c-.2.2-.5.3-.8.3s-.6,0-.8-.3ZM181.6,70.7c-.1-.1-.2-.3-.2-.6v-8.3c0-.2,0-.4.2-.6.1-.1.3-.2.6-.2s.4,0,.6.2c.2.1.2.3.2.6v8.3c0,.3,0,.5-.2.6-.1.1-.3.2-.6.2s-.4,0-.6-.2h0Z"/>
  <path class="st2" d="M189.4,70.3c-.7-.4-1.2-1-1.6-1.7s-.6-1.6-.6-2.6.2-1.9.6-2.6c.4-.7.9-1.3,1.6-1.7s1.5-.6,2.4-.6,1.7.2,2.4.6c.7.4,1.2,1,1.6,1.7.4.7.6,1.6.6,2.6s-.2,1.9-.6,2.6c-.4.8-.9,1.3-1.6,1.7-.7.4-1.5.6-2.4.6s-1.7-.2-2.4-.6h0ZM194,68.7c.5-.6.8-1.5.8-2.7s-.3-2.1-.8-2.7c-.5-.6-1.2-.9-2.1-.9s-1.6.3-2.2.9c-.5.6-.8,1.5-.8,2.7s.2,2.1.8,2.7c.5.6,1.2,1,2.2,1s1.6-.3,2.1-.9Z"/>
  <path class="st2" d="M208.9,64.8v5.3c0,.3,0,.4-.2.6-.1.1-.3.2-.6.2s-.4,0-.6-.2c-.1-.1-.2-.3-.2-.6v-5.2c0-.9-.2-1.5-.5-2-.3-.4-.9-.6-1.7-.6s-1.6.3-2.1.8c-.5.5-.8,1.2-.8,2.2v4.8c0,.3,0,.4-.2.6-.1.1-.3.2-.6.2s-.4,0-.6-.2c-.1-.1-.2-.3-.2-.6v-8.3c0-.2,0-.4.2-.6.1-.1.3-.2.6-.2s.4,0,.6.2c.1.2.2.3.2.5v1c.3-.6.7-1,1.3-1.3s1.2-.5,1.9-.5c2.3,0,3.4,1.3,3.4,3.8h0,0Z"/>
  <path class="st2" d="M124.5,70.9c.2,0,.4,0,.6-.2.1,0,.2-.2.2-.4,0-.2,0-.3-.1-.5-.1-.1-.3-.2-.5-.2-.3,0-.3,0-.3,0h-.3c-.6,0-1-.2-1.3-.6-.3-.3-.4-.8-.4-1.6v-5h2.2c.2,0,.4,0,.5-.2.1-.1.2-.3.2-.4s0-.3-.2-.5c-.1-.1-.3-.2-.5-.2h-2.2v-2.2c0-.3,0-.5-.2-.6-.1-.1-.3-.2-.6-.2s-.4,0-.6.2c-.2.1-.2.3-.2.6v2.2h-1.3c-.2,0-.4,0-.5.2-.1.1-.2.3-.2.5s0,.3.2.4c.1.1.3.2.5.2h1.3v4.9c0,1.1.2,1.9.8,2.5s1.3.9,2.3.9"/>
  <path class="st2" d="M177,70.9c.2,0,.4,0,.6-.2s.2-.2.2-.4c0-.2,0-.3-.1-.5-.1-.1-.3-.2-.5-.2-.3,0-.3,0-.3,0h-.3c-.6,0-1-.2-1.3-.6-.3-.3-.4-.8-.4-1.6v-5h2.2c.2,0,.4,0,.5-.2.1-.1.2-.3.2-.4s0-.3-.2-.5c-.1-.1-.3-.2-.5-.2h-2.2v-2.2c0-.3,0-.5-.2-.6-.1-.1-.3-.2-.6-.2s-.4,0-.6.2c-.1.1-.2.3-.2.6v2.2h-1.3c-.2,0-.4,0-.5.2-.1.1-.2.3-.2.5s0,.3.2.4c.1.1.3.2.5.2h1.3v4.9c0,1.1.2,1.9.8,2.5.5.6,1.3.9,2.3.9"/>
  <path class="st1" d="M10.7,54.2c1.9-1.1,3.8-2.4,5.9-3.3,4.1-1.9,8.5-2.2,12.9-1.3,6.7,1.3,12.3,4.8,17.5,8.9-.8-.6-5.6-2.6-9,.4-.2.2-9.3,7.3-13.8,10.4-4.3,3.1-10.5,1.4-13.7-2.9-3.7-5,0-11.9,0-12.2h0s0,0,0,0Z"/>
  <path class="st0" d="M75.8,55.5l-2.1-3.5c-4.6-8-20.9-36.6-20.9-36.6-4.5-7.9-15.9-7.8-20.3.2,0,0-6.4,11.4-8.4,14.9,0-.1.1-.2.2-.3-1.1,1.9-13.2,23-13.6,23.9h0s0,0,0,0c1.9-1.1,3.8-2.4,5.9-3.3,4.1-1.9,8.5-2.2,12.9-1.3,5.4,1.1,10.1,3.5,14.5,6.6l13.9,10.8s9.7,8.2,17-.6c.8-.9,4-5.4.9-10.8h0s0,0,0,0h0Z"/>
  <g>
    <path class="st2" d="M206.8,14.2h-.7l-.5-1.4c0-.1-.1-.3-.2-.3s-.3,0-.4,0h-.9v1.9h-.6v-4.3h1.8c.5,0,.8.1,1.1.3s.4.5.4.9,0,.5-.2.7-.4.3-.6.4c.2,0,.4.2.6.5l.5,1.4h0ZM205,11.8c.3,0,.6,0,.7-.2.1-.1.2-.3.2-.6s0-.4-.2-.6-.4-.2-.7-.2h-1.1v1.5h1.1Z"/>
    <path class="st2" d="M204.9,16.4c-2.4,0-4.4-2-4.4-4.4s2-4.4,4.4-4.4,4.4,2,4.4,4.4-2,4.4-4.4,4.4ZM204.9,8.2c-2.1,0-3.8,1.7-3.8,3.8s1.7,3.8,3.8,3.8,3.8-1.7,3.8-3.8-1.7-3.8-3.8-3.8Z"/>
  </g>
</svg>