<?xml version="1.0" encoding="UTF-8"?>
<svg id="Layer_1" xmlns="http://www.w3.org/2000/svg" version="1.1" viewBox="0 0 132 22">
  <!-- Generator: Adobe Illustrator 29.1.0, SVG Export Plug-In . SVG Version: 2.1.0 Build 142)  -->
  <defs>
    <style>
      .st0 {
        fill: #1a1a1a;
      }
    </style>
  </defs>
  <path class="st0" d="M18.3,9.3l-8.6,4.9L.4,8.9l-.4.2v3.8l9.7,5.4,8.6-4.8v2l-8.6,4.9L.4,15.2,0,15.4v.6l9.7,5.4,9.7-5.4v-3.8l-.4-.2-9.2,5.2L1,12.4v-2l8.6,4.8,9.7-5.4v-3.7l-.5-.3-9.2,5.2L1.5,6.4,9.7,1.8l6.7,3.8.6-.3v-.5L9.7.7,0,6.1v.6l9.7,5.4,8.6-4.9v2Z"/>
  <path class="st0" d="M37.4,18.4V1.9h-2.6v6.2c0,0,0,.2-.1.2,0,0-.2,0-.2,0-.9-1-2.2-1.6-3.7-1.6-3.2,0-5.6,2.7-5.6,6.1s.6,3.2,1.6,4.3c1,1.1,2.5,1.7,4,1.7,1.5,0,2.8-.6,3.7-1.7,0,0,.2,0,.2,0,0,0,.2.1.2.2v1.2h2.6ZM31.4,16.4c-2,0-3.6-1.6-3.6-3.8s1.6-3.8,3.6-3.8,3.6,1.6,3.6,3.8-1.6,3.8-3.6,3.8M51.1,18.4V6.9h-2.5v1.2c0,0,0,.2-.1.2,0,0-.2,0-.2,0-.9-1-2.2-1.6-3.7-1.6-3.2,0-5.6,2.7-5.6,6.1s2.5,6.1,5.7,6.1,2.8-.6,3.7-1.7c0,0,.2,0,.2,0,0,0,.1.1.1.2v1.3h2.5ZM45.1,16.4c-2,0-3.6-1.6-3.6-3.8s1.6-3.8,3.6-3.8,3.6,1.6,3.6,3.8-1.6,3.8-3.6,3.8M72.8,18.4V6.9h-2.5v1.2c0,0,0,.2-.1.2s-.2,0-.2,0c-.9-1-2.2-1.6-3.7-1.6-3.2,0-5.6,2.7-5.6,6.1s2.5,6.1,5.6,6.1,2.8-.6,3.7-1.7c0,0,.2,0,.2,0,0,0,.1.1.1.2v1.3h2.5ZM66.8,16.4c-2,0-3.6-1.6-3.6-3.8s1.6-3.8,3.6-3.8,3.6,1.6,3.6,3.8-1.6,3.8-3.6,3.8M77.5,17.1s0,0,0,0c0,0,.1,0,.2,0,.9,1,2.2,1.6,3.7,1.6,3.2,0,5.7-2.7,5.7-6.1s-.6-3.2-1.6-4.3c-1-1.1-2.5-1.7-4-1.7-1.5,0-2.8.6-3.7,1.7,0,0-.1,0-.2,0,0,0-.1-.1-.1-.2V1.9h-2.6v16.6h2.6v-1.2c0,0,0-.2.1-.2M77.2,12.7c0-2.1,1.6-3.8,3.6-3.8s3.6,1.6,3.6,3.8-1.6,3.7-3.6,3.7-3.6-1.7-3.6-3.8M94.5,9.3c.2,0,.5,0,.6,0v-2.6c-.1,0-.3,0-.4,0-1.3,0-2.6.7-3.2,1.8,0,0-.1.1-.2,0,0,0-.2-.1-.2-.2v-1.4h-2.5v11.6h2.6v-5.1c0-2.5,1.3-4.1,3.4-4.1M99.3,6.9h-2.6v11.6h2.6V6.9ZM98,1.9c-.9,0-1.6.7-1.6,1.5s.7,1.6,1.5,1.6c0,0,0,0,0,0,.9,0,1.6-.6,1.6-1.5,0-.9-.6-1.6-1.5-1.6,0,0,0,0-.1,0M106.9,6.6c-3.6,0-6.1,2.6-6.1,6.1s.6,3.2,1.7,4.4c1.1,1.1,2.7,1.7,4.4,1.7s2.6-.3,4.7-1.8l-1.5-1.5c-1,.7-2,1-2.9,1-2.1,0-3.8-1.6-3.8-3.7s1.6-3.7,3.8-3.7,2,.3,2.9,1l1.6-1.5c-1.9-1.6-3.6-1.8-4.8-1.8M116,13.4s0,0,.1,0h0c0,0,.1,0,.2,0l4.1,5.1h3.1l-5.3-6.4c0,0,0-.2,0-.3l4.9-4.9h-3.1l-4.2,4.2c0,0-.1,0-.2,0,0,0-.1-.1-.1-.2V1.9h-2.6v16.6h2.6v-4.5c0,0,0-.1,0-.2l.5-.4Z"/>
  <path class="st0" d="M127.8,18.7c2.1,0,4.2-1.3,4.2-3.7s-1-2.7-3-3.3l-1.4-.5c-.9-.3-1.4-.8-1.4-1.4s.6-1.2,1.5-1.2,1.6.6,2.1,1.5l2.1-1.1c-.8-1.6-2.3-2.5-4.1-2.5s-4,1.5-4,3.5,1,2.7,2.9,3.3l1.4.5c1,.3,1.4.7,1.4,1.4,0,1-.9,1.3-1.7,1.3s-2-.7-2.4-1.8l-2.1,1.1c.7,1.8,2.4,2.8,4.4,2.8M58.2,18.6c.8,0,1.5,0,1.9-.1v-2.2c-.4,0-.9,0-1.3,0-1,0-1.8-.2-1.8-2.4v-4.7c0-.1,0-.2.2-.2h2.5v-2.1h-2.5c-.1,0-.2,0-.2-.2,0,0,0,0,0,0v-3.3h-2.6v3.3c0,.1,0,.2-.2.2h-1.8v2.1h1.8c.1,0,.2,0,.2.2v5.4c0,4,2.7,4,3.7,4"/>
</svg>