<?xml version="1.0" encoding="UTF-8"?>
<svg id="Layer_1" xmlns="http://www.w3.org/2000/svg" version="1.1" viewBox="0 0 1200 260">
  <!-- Generator: Adobe Illustrator 29.1.0, SVG Export Plug-In . SVG Version: 2.1.0 Build 142)  -->
  <defs>
    <style>
      .st0 {
        fill: #131313;
      }

      .st1 {
        fill: #a4a4a4;
      }

      .st2 {
        fill: #1a1a1a;
      }
    </style>
  </defs>
  <path class="st2" d="M330.3,150.2c0-8.6,1.4-17.2,4.4-25.3,2.7-7.5,6.9-14.4,12.4-20.3,5.3-5.7,11.8-10.3,19-13.4,7.6-3.3,15.9-4.9,24.2-4.8,9.4,0,17.2,1.6,23.3,4.8,6.1,3.2,11.3,7.8,15.1,13.6v-62.7h29.7v169.8h-29.7v-16c-3.9,5.6-9.1,10.2-15.2,13.3-6.2,3.2-14,4.8-23.5,4.8-8.2,0-16.4-1.6-23.9-4.9-7.2-3.1-13.7-7.7-19-13.4-5.4-5.9-9.6-12.8-12.4-20.3-3-8-4.4-16.5-4.4-25.1ZM424.6,143.9c-1-8-4.9-15.3-11.1-20.5-6.1-5.2-13.6-7.8-22.4-7.8-4.8,0-9.7.9-14.1,2.8-4.1,1.8-7.7,4.3-10.7,7.6-3,3.2-5.3,7-6.8,11.1-1.6,4.3-2.4,8.9-2.4,13.4,0,4.4.8,8.9,2.4,13,1.5,4,3.8,7.7,6.7,10.9,3,3.2,6.7,5.8,10.8,7.5,4.5,1.9,9.3,2.9,14.1,2.8,4.3,0,8.6-.7,12.6-2.1,3.7-1.3,7.1-3.3,10.1-5.9,8.1-7,11.9-18,11.1-28.6-.2-1.4-.2-2.8-.4-4.2Z"/>
  <path class="st2" d="M508.3,158.4c1.4,7.6,5.1,14.6,10.7,19.9,5.9,5.7,13.6,8.5,23,8.5,5.7,0,11.4-1.3,16.4-4.1,4.4-2.4,8-5.9,10.5-10.3h33.2c-3.2,12.2-10.7,23-21.1,30.2-10.6,7.5-23.7,11.3-39.3,11.3-8.7,0-17.4-1.6-25.5-4.8-7.7-3.1-14.6-7.6-20.5-13.4-5.8-5.8-10.5-12.7-13.6-20.3-3.3-8-4.9-16.5-4.8-25.1,0-8.7,1.5-17.3,4.7-25.3,3-7.6,7.5-14.5,13.2-20.3,5.8-5.8,12.6-10.4,20.2-13.4,8-3.3,16.7-4.9,25.3-4.8,8.2,0,16.4,1.2,24.2,3.9,7.1,2.4,13.8,6.1,19.6,10.8,5.6,4.7,10.2,10.4,13.6,16.9,3.5,6.8,5.7,14.3,6.4,21.9.3,3.3.5,6.2.5,8.9s0,5.4-.2,9.7h-96.4ZM572.5,138.9c-.8-7.2-4.4-13.8-10-18.4-5.7-4.7-12.9-7.1-21.3-7.1s-15.5,2.4-21.1,7.1c-5.6,4.7-9.5,11.2-11,18.4h63.5Z"/>
  <path class="st2" d="M616.8,150.2c0-8.7,1.6-17.3,5-25.3,3.2-7.6,7.8-14.5,13.6-20.3,5.8-5.8,12.8-10.4,20.4-13.4,8.1-3.3,16.7-4.9,25.5-4.8,7.7,0,15.3,1.2,22.5,3.7,6.8,2.3,13.1,5.7,18.8,10.1,11.3,8.9,18.7,21.8,20.8,36h-31.8c-1.9-6-5.7-11.3-10.8-15-5.2-3.8-11.6-5.8-19.1-5.8-4.8,0-9.5.9-13.8,2.8-4,1.8-7.6,4.4-10.6,7.7-2.9,3.3-5.2,7-6.8,11.1-1.7,4.2-2.5,8.8-2.5,13.3,0,4.5.8,8.9,2.5,13.1,1.6,4.1,3.9,7.8,6.8,11.1,3,3.3,6.6,5.9,10.6,7.7,4.3,1.9,9,2.9,13.8,2.8,7.4,0,13.7-1.9,19-5.7,5.1-3.6,9-8.7,11-14.6h31.8c-2.3,14-9.8,26.6-20.9,35.5-5.6,4.4-11.9,7.8-18.6,10.1-7.2,2.5-14.9,3.7-22.5,3.7-8.7,0-17.4-1.6-25.5-4.8-7.6-3.1-14.6-7.6-20.4-13.4-12-12.1-18.6-28.4-18.5-45.4h0Z"/>
  <path class="st2" d="M875.3,211.8h-29.7v-15.8c0,.6-1.3,1.8-1.6,2.2-.6.7-1.2,1.4-1.8,2.1-9,8.8-21,13.8-33.6,13.8-1.6,0-3.1,0-4.7,0-6.1,0-12.2-1.1-17.9-3.4-5.1-2.1-9.8-5.4-13.5-9.4-3.8-4.1-6.7-9-8.5-14.3-2-5.8-3.1-12-3-18.1v-80.2h29.7v70.7c0,8,2.3,14.2,6.8,18.8,4.6,4.5,10.4,6.7,17.5,6.7,4.2,0,8.4-1,12.1-3,3.6-1.9,6.9-4.5,9.5-7.7,2.7-3.3,4.9-7,6.4-11,1.5-4,2.4-8.3,2.6-12.6v-62h29.7v123.1Z"/>
  <path class="st2" d="M1029.4,150.2c0,8.6-1.4,17.1-4.4,25.1-2.7,7.5-7,14.4-12.4,20.3-5.3,5.7-11.8,10.3-19,13.4-7.6,3.3-15.9,4.9-24.2,4.8-9.4,0-17.2-1.6-23.3-4.8-6-3.1-11.2-7.7-15.1-13.3v16h-29.7V42h29.7v62.7c3.8-5.7,9-10.4,15.1-13.6,6.1-3.2,13.9-4.8,23.3-4.8,8.3-.1,16.5,1.5,24.2,4.8,7.2,3.1,13.6,7.7,18.9,13.4,5.4,5.9,9.6,12.8,12.4,20.3,3,8.1,4.5,16.7,4.4,25.3ZM936.4,143.9v13c.6,3.8,1.8,7.6,3.7,11,1.8,3.4,4.2,6.4,7.1,8.8,3,2.6,6.4,4.6,10.1,5.9,4,1.5,8.3,2.2,12.6,2.1,9.3.2,18.3-3.6,24.8-10.4,3-3.1,5.3-6.8,6.8-10.9,1.6-4.1,2.4-8.6,2.4-13,0-4.6-.8-9.2-2.4-13.5-1.5-4.1-3.8-7.9-6.7-11.1-3-3.2-6.7-5.8-10.7-7.6-8.5-3.5-18.1-3.8-26.8-.6-3.7,1.4-7.1,3.4-10.1,6-2.9,2.5-5.3,5.6-7.1,9-1.8,3.5-3,7.2-3.7,11.1h0Z"/>
  <path class="st2" d="M1072.3,158.4c1.4,7.6,5.1,14.6,10.7,19.9,5.9,5.7,13.6,8.5,23,8.5,5.7,0,11.4-1.3,16.4-4.1,4.4-2.4,8-5.9,10.5-10.3h33.2c-3.2,12.2-10.7,22.9-21.1,30.2-10.6,7.5-23.7,11.3-39.3,11.3-8.7,0-17.4-1.6-25.5-4.8-7.7-3.1-14.6-7.7-20.5-13.4-5.8-5.8-10.5-12.7-13.6-20.3-3.3-8-4.9-16.5-4.8-25.1,0-8.7,1.5-17.3,4.7-25.3,3-7.6,7.5-14.5,13.2-20.3,5.7-5.8,12.6-10.4,20.2-13.4,8-3.3,16.7-4.9,25.3-4.8,8.2,0,16.4,1.2,24.1,3.9,7.1,2.4,13.8,6.1,19.6,10.8,5.6,4.7,10.2,10.4,13.6,16.9,3.5,6.8,5.7,14.3,6.4,21.9.3,3.3.5,6.2.5,8.9,0,2.6,0,5.4-.2,9.7h-96.4ZM1136.5,138.9c-.8-7.2-4.4-13.8-10-18.4-5.7-4.7-12.9-7.1-21.3-7.1s-15.5,2.4-21.1,7.1c-5.6,4.7-9.5,11.2-11,18.4h63.5Z"/>
  <path class="st0" d="M180.6,179.6l-127.3,54.7c-8.1,3.5-17.5-.3-21-8.5-.8-2-1.3-4.1-1.3-6.2v-124.5c0-6.4,3.8-12.1,9.7-14.7l127.3-54.7c8.1-3.5,17.5.3,21,8.5.8,2,1.3,4.1,1.3,6.2v124.5c0,6.4-3.8,12.1-9.7,14.7Z"/>
  <path class="st1" d="M251.5,188.8l-87.4,37.5c-8.1,3.5-17.5-.3-21-8.5-.8-2-1.3-4.1-1.3-6.2v-84.5c0-6.4,3.8-12.1,9.7-14.7l87.4-37.5c8.1-3.5,17.5.3,21,8.5.8,2,1.3,4.1,1.3,6.2v84.5c0,6.4-3.8,12.1-9.7,14.7Z"/>
</svg>