<?xml version="1.0" encoding="UTF-8"?>
<svg id="Layer_1" xmlns="http://www.w3.org/2000/svg" version="1.1" viewBox="0 0 800 142">
  <!-- Generator: Adobe Illustrator 29.1.0, SVG Export Plug-In . SVG Version: 2.1.0 Build 142)  -->
  <defs>
    <style>
      .st0 {
        fill: #191919;
      }
    </style>
  </defs>
  <path class="st0" d="M578.6,37.2h-18.4c-5.2,0-8.8,1-11,3.2-2.2,2.1-3.3,5.8-3.3,10.8v63.6s-11,0-11,0V50.4c0-4.9.9-10.2,3.5-14.2,4.7-7.5,13.7-8.9,20.4-8.9h19.9v9.9Z"/>
  <path class="st0" d="M507.6,104.8c-5.2,0-8.8-1-11-3.2-2.2-2.1-3.3-5.6-3.3-10.6v-53.9h23.1v-9.9h-23.1V1h-11v90.6c0,4.9.9,10.2,3.5,14.2,4.7,7.5,13.7,8.9,20.4,8.9h19.9v-9.9h-18.4Z"/>
  <path class="st0" d="M219.3,1v26.2h-23.1c-14,0-22.5,4.2-27.8,9.3-8.1,7.9-8.1,19.2-8.1,20.4v28.2c0,1.2,0,12.5,8.1,20.4,5.2,5.1,13.7,9.3,27.8,9.3h10.3c6.7,0,15.7-1.5,20.4-8.9,2.5-4,3.4-9.3,3.5-14.2V1h-11ZM216,101.7c-2.2,2.1-5.8,3.2-11,3.2h-9.9c-9.1,0-14.8-2.6-18.2-6-4.1-4-5.5-9.3-5.5-13.4v-28.9c0-4.1,1.4-9.4,5.5-13.4,3.5-3.4,9.1-6,18.2-6h24.2s0,53.9,0,53.9c0,5-1.1,8.5-3.3,10.6"/>
  <path class="st0" d="M678.2,43.2c3.5-3.4,9.1-6,18.2-6h26.5v-9.9h-25.4c-14,0-22.5,4.2-27.8,9.3-8.1,7.9-8.1,19.2-8.1,20.4v28.2c0,1.2,0,12.5,8.1,20.4,5.2,5.1,13.7,9.3,27.8,9.3h25.4v-9.9h-26.5c-9.1,0-14.8-2.6-18.2-6-4.1-4-5.5-9.3-5.5-13.4v-28.9c0-4.1,1.4-9.4,5.5-13.4"/>
  <path class="st0" d="M470.9,56.9c0-1.2,0-12.5-8.1-20.4-5.2-5.1-13.7-9.3-27.8-9.3h-24.5v9.9h25.6c9.1,0,14.8,2.6,18.2,6,4.1,4,5.5,9.3,5.5,13.4v8.4h-35.1c-6.7,0-15.7,1.5-20.4,8.9-2.5,4-3.4,9.3-3.5,14.2v3.5c0,4.9.9,10.2,3.5,14.2,4.7,7.5,13.7,8.9,20.4,8.9h22.3c6.7,0,15.7-1.5,20.4-8.9,2.5-4,3.4-9.3,3.5-14.2v-34.7ZM456.6,101.7c-2.2,2.1-5.8,3.2-11,3.2h-19.4c-5.2,0-8.8-1-11-3.2-2.2-2.1-3.3-5.6-3.3-10.6v-2.4c0-5,1.1-8.5,3.3-10.6,2.2-2.1,5.8-3.2,11-3.2h33.6v16.2c0,5-1.1,8.5-3.3,10.6"/>
  <path class="st0" d="M652.9,56.9c0-1.2,0-12.5-8.1-20.4-5.2-5.1-13.7-9.3-27.8-9.3h-24.5v9.9h25.6c9.1,0,14.8,2.6,18.2,6,4.1,4,5.5,9.3,5.5,13.4v8.4h-35.1c-6.7,0-15.7,1.5-20.4,8.9-2.5,4-3.4,9.3-3.5,14.2v3.5c0,4.9.9,10.2,3.5,14.2,4.7,7.5,13.7,8.9,20.4,8.9h22.3c6.7,0,15.7-1.5,20.4-8.9,2.5-4,3.4-9.3,3.5-14.2v-34.7ZM638.6,101.7c-2.2,2.1-5.8,3.2-11,3.2h-19.4c-5.2,0-8.8-1-11-3.2-2.2-2.1-3.3-5.6-3.3-10.6v-2.4c0-5,1.1-8.5,3.3-10.6,2.2-2.1,5.8-3.2,11-3.2h33.6v16.2c0,5-1.1,8.5-3.3,10.6"/>
  <polygon class="st0" points="317.8 27.2 306.3 27.2 278.4 99.8 250.5 27.2 239.1 27.2 272.7 114.7 262.6 141 274.1 141 317.8 27.2"/>
  <path class="st0" d="M392.2,56.9c0-1.2,0-12.5-8-20.4-5.1-5-13.2-9.1-26.4-9.3h-1.2c-13.2.2-21.3,4.3-26.4,9.3-8,7.9-8,19.2-8,20.4v57.9h11v-58.2c0-4.1,1.3-9.4,5.4-13.4,3.4-3.3,9.9-5.9,18.6-6,8.7.1,15.2,2.7,18.6,6,4,4,5.4,9.3,5.4,13.4v58.2h11v-57.9"/>
  <path class="st0" d="M791,36.5c-5.1-5-13.2-9.1-26.4-9.3h-1.2c-13.2.2-21.3,4.3-26.4,9.3-8,7.9-8,19.2-8,20.4v28.2c0,1.2,0,12.5,8,20.4,5.1,5,13.2,9.1,26.4,9.3h26v-10h-25.4c-8.7,0-15.2-2.6-18.6-6-4-4-5.4-9.3-5.4-13.4v-10.3h59v-18.2c0-1.2,0-12.5-8-20.4M740.1,65.2v-8.6c0-4.1,1.3-9.4,5.4-13.4,3.4-3.3,9.9-5.9,18.6-6,8.7.1,15.2,2.7,18.6,6,4,4,5.4,9.3,5.4,13.4v8.6h-48Z"/>
  <path class="st0" d="M42.5,50.6S3.2,45.9,1,55.3c0,7.1.3,18.3,1.2,30.8,1.4,21.3,4.1,40.2,4.1,40.2l35.5-33.8s-1.3-16.9.8-42.1"/>
  <path class="st0" d="M89.2,99.6c-25.3.8-42.1-1.3-42.1-1.3l-35.5,33.8s18.8,3.7,40,6.1c12,1.4,28.2,2.5,30.5,2.7.2,0,.5,0,.6,0,9.2-2.6,6.5-41.2,6.5-41.2"/>
  <path class="st0" d="M13,45.7c9.6-1.3,23.8-2.8,38.1-3.2,25.3-.8,42,1.3,42,1.3l35.5-33.8s-18.6-3.5-39.8-6c-13.8-1.6-26.1-2.5-32.9-2.9-.5,0-5.4-.6-10,3.8-5.1,4.8-30.4,28.9-40.6,38.6C.6,47.8,1,52.7,1,53.1c0,.7,0,1.4,0,2.2.4-1.7,1.1-2.9,2.5-4.8,2.9-3.7,7.6-4.7,9.5-4.9"/>
  <path class="st0" d="M138,55.7c-1.4-21.3-4.1-40.1-4.1-40.1l-35.5,33.8s1.3,16.8-.8,42c-1.1,14.3-3.4,28.4-5.1,37.9-.3,1.9-1.5,6.5-5.4,9.3-1.9,1.3-3.1,1.9-4.9,2.3.8,0,1.5,0,2.2.1.5,0,5.4.6,10-3.8,10.2-9.7,35.5-33.9,40.5-38.7,4.6-4.4,4.2-9.3,4.2-9.8,0-6.8-.3-19.1-1.3-33"/>
</svg>