<?xml version="1.0" encoding="UTF-8"?>
<svg id="Layer_1" xmlns="http://www.w3.org/2000/svg" version="1.1" viewBox="0 0 240 66.8">
  <!-- Generator: Adobe Illustrator 29.1.0, SVG Export Plug-In . SVG Version: 2.1.0 Build 142)  -->
  <defs>
    <style>
      .st0 {
        fill: #1a1a1a;
      }
    </style>
  </defs>
  <path class="st0" d="M94.4,19v5.6h-15.1v6.1h13.9v5.7h-13.9v11.8h-7.3v-29.2h22.4Z"/>
  <path class="st0" d="M100.3,19h6.3v5h-6.3v-5ZM100.3,26.6h6.3v21.6h-6.3v-21.6Z"/>
  <path class="st0" d="M111.1,26.6h6.7c2.7,9.6,3.1,11.5,3.8,15.7.9-4.8,1-5.3,2.3-10.4l1.3-5.3h6.5l-7,21.6h-6.6l-7-21.5Z"/>
  <path class="st0" d="M155.8,42.7c-.7,1.2-1.6,2.3-2.6,3.2-2.2,2-5.1,3.1-8.1,3.1-6.4,0-10.9-4.1-10.9-11.2s2.6-11.9,11.1-11.9c2.9,0,5.7,1,7.8,3.1,2.8,3,3,7.2,3.1,9.7h-15.4c0,2.7,1.5,5.4,4.9,5.4s4.7-2.3,5.5-3.8l4.8,2.4ZM149.5,34.7c0-1.1-.5-2.2-1.2-3.1-.8-.8-2-1.2-3.1-1.2-1.2,0-2.4.5-3.2,1.4-.7.8-1.1,1.8-1.3,2.8h8.8Z"/>
  <path class="st0" d="M162.4,20.4h6.3v6.7h4.2v3.9h-4.2v9.8c0,1.3,0,2.5,1.7,2.5h2.3c0,0,0,4.9,0,4.9-1.1.2-2.2.3-3.3.3-2.2,0-4.6-.1-6-2.1-.9-1.3-.9-2.8-.9-4.9v-10.5h-3.1v-3.9h3.1v-6.7Z"/>
  <path class="st0" d="M184.3,28.9c1.7-1.5,3.9-2.4,6.2-2.5v5.6l-2.1.3c-3.1.5-4,1-4,3.7v12.1h-6.3v-21.6h6.2v2.3Z"/>
  <path class="st0" d="M195.2,32.8c0-1.9.8-3.6,2.3-4.8,2-1.6,4.5-1.9,7.1-1.9s9.1.6,9.1,6.2v12.5c0,2.3.1,2.7.6,3.4h-6.2v-2c-1.7,1.2-3.4,2.6-6.6,2.6-4.9,0-7.1-3.6-7.1-6.6s2.8-5.5,4.5-6.2c2.8-.9,5.6-1.6,8.5-2v-1.2c0-1-.2-2.7-2.5-2.7s-3.2,1.7-3.3,2.5h-6.4ZM203.2,39.3c-1.1.4-2.7,1-2.7,2.7,0,1.3,1.1,2.2,2.4,2.2.8,0,1.5-.3,2.2-.7,2.1-1.3,2.2-3.3,2.2-5.5l-4.1,1.4Z"/>
  <path class="st0" d="M227.2,28.6c.6-.7,1.3-1.3,2.2-1.7,1.2-.5,2.6-.8,3.9-.8,1.3,0,2.7.3,3.8.9,2.3,1.2,2.8,3.1,2.8,6.5v14.8h-6.3v-12.1c.1-1.1,0-2.2-.3-3.2-.5-1.1-1.6-1.7-2.8-1.7-3.3,0-3.3,2.7-3.3,5.4v11.7h-6.3v-21.5h6.4v1.9Z"/>
  <path class="st0" d="M33.2,33.4h6.7c.6,0,1-.4,1-1,0-.1,0-.3,0-.4L29.3.6c-.1-.4-.5-.6-.9-.6h-6.7c-.6,0-1,.4-1,1,0,.1,0,.2,0,.3l11.5,31.5c.2.4.5.6.9.6Z"/>
  <path class="st0" d="M32,66.8h6.7c.6,0,1-.4,1-1,0-.1,0-.2,0-.3L15.9.6c-.1-.4-.5-.6-.9-.6h-6.7c-.6,0-1,.4-1,1,0,.1,0,.2,0,.3l23.8,64.8c.1.4.5.6.9.6Z"/>
  <path class="st0" d="M18.8,66.8h6.7c.5,0,1-.4,1-.9,0-.1,0-.3,0-.4l-11.6-31.4c-.1-.4-.5-.6-.9-.6h-6.7c-.5,0-.9.5-.9,1,0,.1,0,.2,0,.3l11.5,31.5c.2.4.5.6.9.6Z"/>
  <path class="st0" d="M34,1.3l5.4,14.7c.1.4.5.6.9.6h6.7c.6,0,1-.4,1-1,0-.1,0-.2,0-.3L42.5.6c-.1-.4-.5-.6-.9-.6h-6.7c-.6,0-1,.4-1,1,0,.1,0,.2,0,.4Z"/>
  <path class="st0" d="M6.4,66.8h6.7c.6,0,1-.4,1-1,0-.1,0-.2,0-.3l-5.4-14.8c-.1-.4-.5-.6-.9-.6H1c-.6,0-1,.4-1,1,0,.1,0,.2,0,.3l5.4,14.8c.2.4.5.6.9.6Z"/>
</svg>